<svg xmlns="http://www.w3.org/2000/svg" fill="none" viewBox="0 0 110 26"><path fill="currentColor" d="M.908 20.14h4.204V8.802c-.44.235-1.06.454-1.86.66-.801.195-1.612.292-2.432.292l-.542-1.83c.42 0 .913-.05 1.48-.147a13.854 13.854 0 0 0 1.728-.41 10.46 10.46 0 0 0 1.596-.645c.479-.254.84-.532 1.084-.835h1.23V20.14h3.707V22H.908v-1.86Zm25.372.6h-2.608v4.835h-2.168V20.74h-9.39l-.541-1.494.82-1.202 8.189-12.158h3.09v12.935h2.608v1.919Zm-4.776-1.918V7.967l-7.192 10.855h7.193Zm9.963-15.63c0 .537-.171.976-.513 1.318-.381.323-.781.484-1.201.484-.4 0-.782-.161-1.143-.484-.342-.322-.512-.761-.512-1.318s.17-.977.512-1.26a1.613 1.613 0 0 1 1.143-.454c.44 0 .84.151 1.2.454.343.303.514.723.514 1.26ZM28.64 22V8.202h2.285V22H28.64Zm13.858-10.473c-.215-.518-.605-.957-1.172-1.318-.556-.362-1.255-.543-2.095-.543-.84 0-1.489.19-1.948.572-.459.38-.688.86-.688 1.435 0 .362.078.664.234.909.156.244.381.454.674.63.293.175.63.332 1.01.468.382.127.792.25 1.231.366.596.166 1.196.347 1.802.542a6.994 6.994 0 0 1 1.64.718c.479.283.87.645 1.172 1.084.303.44.455 1.001.455 1.685 0 .595-.123 1.157-.367 1.684-.234.518-.59.972-1.069 1.363-.469.39-1.035.693-1.7.908-.654.224-1.4.337-2.24.337-1.075 0-1.959-.157-2.652-.47-.693-.312-1.26-.658-1.7-1.04a4.83 4.83 0 0 1-1.2-1.493l1.83-1.084c.186.42.46.8.821 1.142.274.284.654.542 1.143.777.498.224 1.103.337 1.816.337.381 0 .757-.04 1.128-.117a3.09 3.09 0 0 0 .967-.396c.283-.186.508-.405.674-.66a1.65 1.65 0 0 0 .263-.937c0-.674-.312-1.172-.937-1.494-.615-.322-1.44-.635-2.476-.937a28.264 28.264 0 0 1-1.699-.528 7.75 7.75 0 0 1-1.538-.747 3.845 3.845 0 0 1-1.099-1.113c-.273-.44-.41-.981-.41-1.626 0-.625.127-1.191.381-1.7a3.976 3.976 0 0 1 1.084-1.303 5.26 5.26 0 0 1 1.611-.835 6.263 6.263 0 0 1 1.992-.308c1.221 0 2.28.264 3.18.791.898.518 1.489 1.138 1.772 1.86l-1.89 1.04ZM47.626.672h2.285V22h-2.285V.672Zm10.138 19.893c.625 0 1.172-.093 1.64-.278.47-.196.86-.454 1.173-.777.322-.322.57-.683.747-1.084.185-.4.278-.81.278-1.23v-1.201c-.313.039-.752.097-1.318.175-.557.069-1.094.142-1.612.22a9.84 9.84 0 0 0-1.186.25 4.2 4.2 0 0 0-1.011.38c-.557.342-.855.864-.894 1.567 0 .655.186 1.148.557 1.48.38.332.923.498 1.626.498Zm-4.38-9.639a4.844 4.844 0 0 1 1.143-1.552c.42-.4.967-.757 1.64-1.07.684-.312 1.51-.469 2.476-.469.957 0 1.763.123 2.417.367.664.234 1.201.566 1.611.996.41.42.703.937.88 1.553.185.615.277 1.264.277 1.948v5.64c0 .703.079 1.166.235 1.391.166.215.415.322.747.322.225 0 .386-.01.483-.03l.308-.058.117 1.773a2.075 2.075 0 0 1-.556.234c-.206.059-.523.088-.953.088-.634 0-1.152-.215-1.552-.644-.4-.43-.64-.987-.718-1.67-.42.742-1.03 1.367-1.831 1.875-.801.498-1.7.747-2.695.747-1.31 0-2.33-.332-3.062-.996-.723-.665-1.084-1.563-1.084-2.696.02-.703.205-1.279.557-1.728.351-.45.786-.816 1.303-1.099a7.802 7.802 0 0 1 1.641-.586 17.5 17.5 0 0 1 2.05-.366l2.784-.366v-1.655c0-.938-.24-1.695-.718-2.271-.478-.586-1.235-.879-2.27-.879-.664 0-1.206.112-1.626.337-.42.215-.752.464-.996.747a5.154 5.154 0 0 0-.689 1.143l-1.919-1.026Zm24.391 1.978c0-.42-.068-.82-.205-1.201a2.928 2.928 0 0 0-.571-1.026 2.608 2.608 0 0 0-.953-.703c-.39-.185-.854-.278-1.391-.278-.684 0-1.284.151-1.802.454a4.345 4.345 0 0 0-1.289 1.172c-.342.478-.6 1.02-.776 1.626a6.631 6.631 0 0 0-.25 1.787V22h-2.284V11.043c0-.292-.015-.712-.044-1.26a61.688 61.688 0 0 0-.103-1.581h2.227c.02.117.034.293.043.527l.03.718c.01.254.014.517.014.79v.69h.147c.156-.382.386-.753.688-1.114a5.689 5.689 0 0 1 1.055-.996c.4-.293.845-.527 1.333-.703a4.502 4.502 0 0 1 1.611-.279c.674 0 1.3.098 1.876.293a3.952 3.952 0 0 1 1.523.88c.43.4.767.922 1.01 1.567.255.635.382 1.401.382 2.3V22h-2.271v-9.096Zm7.15 2.197c0 1.777.42 3.12 1.26 4.028.84.899 1.889 1.348 3.149 1.348s2.3-.45 3.12-1.348c.82-.908 1.23-2.25 1.23-4.028 0-1.777-.41-3.12-1.23-4.028-.82-.918-1.86-1.377-3.12-1.377s-2.31.459-3.15 1.377c-.84.908-1.26 2.25-1.26 4.028ZM95.779.672v18.501c0 .342.015.791.044 1.348.04.547.078 1.04.117 1.48h-2.08c-.02-.098-.039-.24-.058-.425-.02-.196-.035-.4-.044-.616a14.08 14.08 0 0 0-.044-.659c-.02-.224-.03-.43-.03-.615h-.146a4.85 4.85 0 0 1-.791.982 6.48 6.48 0 0 1-1.084.864 5.61 5.61 0 0 1-1.348.6 4.966 4.966 0 0 1-1.523.235c-.88 0-1.7-.171-2.461-.513a5.838 5.838 0 0 1-1.963-1.45c-.547-.635-.981-1.392-1.304-2.27-.322-.88-.483-1.861-.483-2.945 0-1.074.166-2.066.498-2.974.332-.918.781-1.699 1.348-2.343a6.141 6.141 0 0 1 2.021-1.524 5.963 5.963 0 0 1 2.534-.542c.498 0 .977.073 1.436.22.459.137.884.327 1.274.571.39.235.733.498 1.026.791.302.293.546.586.732.88h.147a8.148 8.148 0 0 1-.074-.91c-.01-.331-.014-.6-.014-.805V.673h2.27Zm11.588 10.855c-.215-.518-.605-.957-1.172-1.318-.556-.362-1.255-.543-2.094-.543-.84 0-1.49.19-1.949.572-.459.38-.688.86-.688 1.435 0 .362.078.664.234.909a2 2 0 0 0 .674.63c.293.175.63.332 1.011.468.381.127.791.25 1.23.366.596.166 1.197.347 1.802.542a7.01 7.01 0 0 1 1.641.718c.478.283.869.645 1.172 1.084.302.44.454 1.001.454 1.685a3.95 3.95 0 0 1-.367 1.684c-.234.518-.59.972-1.069 1.363-.469.39-1.035.693-1.699.908-.654.224-1.401.337-2.241.337-1.075 0-1.958-.157-2.652-.47-.693-.312-1.259-.658-1.699-1.04a4.83 4.83 0 0 1-1.201-1.493l1.831-1.084c.186.42.459.8.82 1.142.274.284.655.542 1.143.777.498.224 1.103.337 1.816.337.381 0 .757-.04 1.128-.117.371-.088.694-.22.967-.396a2.29 2.29 0 0 0 .674-.66c.176-.263.263-.575.263-.937 0-.674-.312-1.172-.937-1.494-.615-.322-1.44-.635-2.476-.937a28.48 28.48 0 0 1-1.699-.528 7.764 7.764 0 0 1-1.538-.747 3.848 3.848 0 0 1-1.099-1.113c-.273-.44-.41-.981-.41-1.626 0-.625.127-1.191.381-1.7a3.974 3.974 0 0 1 1.084-1.303 5.264 5.264 0 0 1 1.611-.835 6.27 6.27 0 0 1 1.993-.308c1.22 0 2.28.264 3.178.791.899.518 1.49 1.138 1.773 1.86l-1.89 1.04Z"/></svg>